<svg xmlns="http://www.w3.org/2000/svg" width="219.283" height="74.865" viewBox="0 0 219.283 74.865">
  <g id="Group_575" data-name="Group 575" transform="translate(-611 -394)">
    <path id="Path_47" data-name="Path 47" d="M647.7,394h-.5l-.66,13.122,1.807-1.32L647.7,394Z" transform="translate(-24.362)" fill="#ed1b23"/>
    <path id="Path_48" data-name="Path 48" d="M644.581,437.832l-2.011,1.477-1.681,33.221h5.563l-1.87-34.7Z" transform="translate(-20.491 -30.051)" fill="#313090"/>
    <path id="Path_49" data-name="Path 49" d="M657.282,559.612a5.978,5.978,0,0,1,1.713,1.21,5.587,5.587,0,0,1,1.7,4.1v.141h6.223a11.8,11.8,0,0,0-3.3-5.893,11.943,11.943,0,0,0-4.777-2.986l-1.555,3.426Z" transform="translate(-31.73 -111.191)" fill="#ed1b23"/>
    <path id="Path_50" data-name="Path 50" d="M624.876,558.073,626.1,554.6a13.073,13.073,0,0,0-2.86-.314,12.234,12.234,0,1,0,0,24.468h.157V569.4h-.22a5.791,5.791,0,1,1,0-11.582,5.476,5.476,0,0,1,1.7.251Z" transform="translate(0 -109.889)" fill="#313090"/>
    <path id="Path_51" data-name="Path 51" d="M1270.977,542.161v-.016l-.078-.157-.2-.047-.142.016-.11.063-.173.031-.236.189-.016.094-.094-.015-.079.063a1.888,1.888,0,0,0-.441.377.433.433,0,0,0-.125.362l.125.315.079.047.094.032.126-.032.063.032h.063l.424-.142.047-.063.094-.016.267-.22.079-.2v-.079l.094-.031.141-.6Z" transform="translate(-451.301 -101.425)" fill="#006cb7"/>
    <path id="Path_52" data-name="Path 52" d="M1146.48,539.021l-.126-.078-.487.188a2.465,2.465,0,0,0-.5.488l-.251.377.094.11.047.11v.11l-.031.063-.063.723-.2.833v.252l-.2.471-.267.032-.079.079-.157-.063-1.147.079-.283.047-.314-.063-.2.016-.409.094h-.126l-.5.047.142-.755v-.126l.173-.55v-.3l.251-1.085-.016-.031v-.063l.016-.094.078-.094.094-.409-.094-.22a.356.356,0,0,0-.282-.142l-.551.079-.126.141-.2.125-.126.77.047.2-.078.11-.314,2.216-.126.5-.141.126a.944.944,0,0,0-.267.487l.063.189.188.236.157.456.016,1.163.11.754.157.5.141.032.157-.032.565-.44.378-.455.094-.236.189-.267-.2-.063-.126.125-.267.2-.095-.11-.063-.424-.048-.094.031-.581.047-.094.047-.5.3-.189.078-.094.5-.126.094-.094.22-.031.142-.079h.11l.2-.047.534-.063.172.047.5-.11.141-.079.11.031h.283l-.078.566.031.063-.094.142-.079.377.032.126-.079.126-.377,1.98.016.251-.047.047-.079.314.079.094-.047.236.078.141.173.047.078-.016.016-.016.189-.079.016-.126.125-.157v-.141l.079-.283.11-.236-.032-.079-.031-.047.031-.031.55-1.666.063-.126-.031-.141.109-.2.425-1.635-.032-.11.173-.267.361-1.7-.047-.11.11-.424.063-1.053-.047-.2Z" transform="translate(-362.492 -99.369)" fill="#006cb7"/>
    <path id="Path_53" data-name="Path 53" d="M1096.9,549.788l-.267.126-.157.031a6.96,6.96,0,0,0-1.241,1.069l-.535.581-.11.063-.11.11-.094.063-.016.047-.047.031-.016.031-.047.016v.031l-.392.3-.063.016-.157.094-.189.031-.3-.094-.22-.471-.126-.582c-.031-.3-.079-.472-.157-.519l-.251-.11h-.5l-.126.094-.047.094-.173.094-.5.534-.031.047-.079.047-.095.11-.188.157-.157.189c-.047-.016-.142.047-.283.173l-.471.472v.11a.441.441,0,0,0-.157.079l-.031.11.031.094.11.031,1.1-.645.078-.079.032-.047.172-.094.126-.094.047-.063h.11l.141-.079.141.126.22.3.063.063v.094l.157.267.079.031.047.031v.079l.094.079.031.078.22.173.267.032.425-.016.329-.157.487-.314.707-.581.032-.047.172-.126h.032l.487-.487a.5.5,0,0,1,.361-.157l.079.016.047.031-.157.472.031.094-.078.079-.456,1.4.048.063v.157l.063.142.173.016.408-.047.314-.236.9-.833.2-.251.173-.063.157-.141.094-.126.126-.031.345-.235.173-.047.156.032.441.409.016.126a1.318,1.318,0,0,0,.361.487.76.76,0,0,0,.472.173l.236-.047.251-.11.094-.078.047-.032.2-.173.141-.063.975-.9.047-.173-.016-.11-.11-.016a.836.836,0,0,0-.393.189l-.5.22-.094.095-.173.094-.062.094-.031.016-.2.032-.251-.189-.142-.22.032-.11-.314-.565-.283-.283-.283-.047-.519.142a2.441,2.441,0,0,0-.644.424l-.1.125-.2.11-.095.063-.063.078v.094l-.031.047-.126.032-.236.22-.172.2-.283.22v-.047l.126-.252v-.063l-.016-.016.048-.047.345-.8v-.079l.11-.126.2-.833-.095-.22-.267-.2h-.078l-.126-.047Z" transform="translate(-328.09 -106.805)" fill="#006cb7"/>
    <path id="Path_54" data-name="Path 54" d="M1097.6,542.318l-.5.44-.142.361.016.094.126.22.063.047.11.032.11-.032.094.032h.031l.44-.142.032-.063.094-.016.126-.079.126-.141.11-.2v-.079l.063-.031.173-.6v-.016l-.11-.157-.189-.047-.141.016-.11.063-.157.031-.236.189-.047.094-.079-.016Z" transform="translate(-333.161 -101.426)" fill="#006cb7"/>
    <path id="Path_55" data-name="Path 55" d="M1055,549.337l-.534.456-.016.047-.062.016-.629.55-.063.094-.11.047-.346.377-.173.079-.44.33h-.031l-.252.189-.063.094-.252.047c-.094,0-.172-.063-.235-.189l-.142-.22.032-.11-.314-.565-.283-.283-.3-.047-.519.141-.628.424-.078.126-.3.173-.078.079-.016.094-.047.047-.094.032-.252.22-.173.2-.267.22v-.047l.126-.252-.032-.063v-.016l.063-.047.346-.8V550.7l.11-.125.094-.362.016-.189.063-.173v-.11l-.079-.22-.267-.2h-.079l-.094-.047-.3.126-.142.031-1.226,1.069-.55.581-.33.236-.016.094-.063.016h-.015l-.047.031.032.016c-.048,0-.142.063-.3.2l-.487.472v.11l-.11.078-.032.11.032.094.078.031a1.254,1.254,0,0,0,.361-.189l.849-.566.063-.016.063-.047.047-.079.079-.079.095-.016.157-.126.33-.361a.476.476,0,0,1,.361-.157l.094.016.032.031-.141.472v.047l.015.047-.11.2-.409,1.179-.015.094.047.063-.032.157.095.141.188.016.393-.047a1.026,1.026,0,0,0,.314-.236l.927-.833.173-.251.172-.063.283-.267.094-.031.362-.236.189-.048.126.032.439.408v.126l.377.487a.762.762,0,0,0,.472.173l.251-.047.251-.11.126-.11.408-.3.031-.016.424-.33.016-.063.125-.047,1.069-.849.142-.079.126-.094.156-.032.111.094-.063.613-.063.3v.2l-.063.22-.063.125h-.047l-.046-.094a.221.221,0,0,0-.189-.125l-.251.11-.267.283.126.267-.031.126.047.393.126.377.063.11-.015.031.078.094.236.048.11-.063.314-.078.2-.236h.047l.126-.047.125-.126.173-.047.22-.3.534-.314.078-.126.157-.032.126-.173.22-.125.346-.346.126-.031.047-.079.314-.314.142-.3-.063-.047-.094-.016h-.016l-.409.189-.141.11-.2.094-.331.236-.156.157-.912.628-.031-.078.22-.456.457-1.635v-.11l.062-.251.016-.2v-.032l.016-.079v-.031l-.016-.079-.047-.094-.142-.141-.3-.094-.172-.016-.252.032a1.1,1.1,0,0,0-.33.267Z" transform="translate(-297.559 -106.291)" fill="#006cb7"/>
    <path id="Path_56" data-name="Path 56" d="M993.117,541.1l-.487.314-.031.11-.111.048-.534.393-.22.283-.582.471-.047.11-.063.031-.2.173-.078.095-.126.047-.031.079v.031c-.047-.016-.141.047-.267.173l-.11.094-.063.016-.173.094-.2.031-.267-.094-.188-.393-.063-.079-.078-.519v-.063q-.071-.448-.189-.518l-.267-.11h-.456l-.157.094-.062.094-.142.094-.55.581-.063.047-.377.346-.047.063h-.063l-.157.157-.2.094-.063.079-.032.063-.565.409-.031.032v.047l.016.048h-.095l-.141.094-.189.078-.063-.047-.031-.063.063-.613v-.063l.016-.063v-.047l.644-2.436.063-.141v-.032l-.032-.047.22-.44.33.016.252-.079.11-.2-.032-.173-.015-.377-.063-.031-.142-.047h-.126l.2-.723-.015-.11-.111-.173-.141-.031-.22.047-.157.126v.016l-.11.094-.095.125-.3.613-.314.047-.251-.078h-.377l-.063.047h-.11l-.267-.047-.2.031-.314.016-.221-.047-.628.047-.031.031-.031.016h-.064v.063l-.047.519.047.141.126.031.267.11h.031l.11-.094.031-.047.047.063.094.063h.707l.063-.031h.079l.046.031.063-.063.3.063.172-.031.142-.063.2.016-.11.173-.094.094-.283.471c-.079.173-.157.267-.22.267h-.016l-.282.456.016.016v.047l-.016.047-.095.016-.079.079-.361.487-.519.518v.094l-.141.031-.047.047-.079.032v.031h-.047l-.015.032-.095.047-.22.2-.063-.016-.111.016-.031.031h-.015l-.3-.11-.189-.283-.079-.566c-.015-.251-.078-.377-.22-.377h-.015l-.032-.047-.393.063-.11.063-.016.095-.141.094-.409.581-.015.094-.188.094-.267.252-.079.157-.173.079-.172.157-.032.063-.094.032-.157.125-.126.063-.063-.031-.062-.157v-.173l-.032-.22.016-.173.063-.283V542.9l.047-.142.11-.5.173-.33v-.094l.126-.157.173-.3v-.047l-.095-.173-.156-.063-.409.079-.11.079H978.8l-.047.031-.408.471v.094l-.236.141-.157.236.047.047-.2.11-.283.3-.141.189-.062.031-.252.2-.079.126-.062.047-.157.079-.11.173-.157.016-.047.11-.031.031a.58.58,0,0,0-.22.11l-.063.095-.078.016h-.016l-.031-.016-.314.125-.236.031a.916.916,0,0,1-.739-.361,1.594,1.594,0,0,1-.282-.943l.173-.157.11-.173.095-.063.675-.912.031-.157.142-.11.078-.126L975.8,541l.189-.377v-.032l.016-.063.3-.393v-.063l.173-.44.032-.173.079-.063.282-.676.095-.487v-.079l-.016-.063.047-.157.016-.3a.751.751,0,0,0-.094-.408.41.41,0,0,0-.33-.157l-.047-.016-.126-.016c-.173,0-.425.2-.785.6a7.49,7.49,0,0,0-.991,1.477v.063l-.047.094-.11.094-.157.362v.047l-.016.079-.079.048-.456,1.241a3.949,3.949,0,0,0-.251,1.132l.047.157-.079.125.032.11-.032.047-.11.047-.094.095-.362.283-.11.047-.063.11-.173.094-.079.141-.141.032-.016.11-.173.126-.11.157v.079l-.094.032-.094.095-.016.047v.031l.047.079.126.031h.031l.11-.063.094-.079.283-.173.2-.079.141-.141.2-.079.063-.079h.062l.095-.094.157-.126.063-.157.032.33.094.283.079.063.031.094-.016.032v.031a1.279,1.279,0,0,0,.441.534.927.927,0,0,0,.55.188l.094-.016h.063l.078.047.142.047.456-.094.549-.236.063-.062.11-.032.236-.141.079-.079.094-.031.031-.031.126-.094.267-.314v-.016l.33-.251.11-.047v-.031h.031l.078-.094.11.031.016.267.063.267a1.157,1.157,0,0,0,.2.723.832.832,0,0,0,.519.33l.126-.031.125.031.6-.283a1.205,1.205,0,0,0,.361-.409l.142-.032.141-.2.095-.094.031-.047.314-.252.079-.11.094-.015.032.015.016.032a.8.8,0,0,0,.314.581,1.133,1.133,0,0,0,.691.22l.267-.031.032-.016h.031l.063-.015.142-.11h.078l.047-.094.142-.047.031-.032h.047l.251-.141.047-.063.141-.047.063-.047.047-.11.126-.063.157-.126.031-.079.016-.016v-.016l.094-.094h.047l.094-.015.063-.11.424-.377.141-.22.11-.079.095-.11-.031.173.031.032v.031l-.031.047-.094.11-.157.377-.142.534v.047l.015.063.032.031-.048.063-.094.566.047.031.016.079v.047l-.016.094v.063l.095.471.393.236.047.015.063-.031.032.031h.125l.111-.015.094-.047h.031l.472-.267.361-.33.047-.094.063-.031.267-.173.282-.315.032-.047.047-.016.142-.079.534-.487.22-.141.047-.063h.094l.141-.078.22.2.141.22.095.063v.094l.141.267.079.031.015.031v.079l.11.079.047.078.22.173.282.032.408-.016.314-.157a1.347,1.347,0,0,0,.472-.314l.66-.518.079-.11h.015l.157-.126.095-.11-.157.644.032.22-.016.094v.047a.656.656,0,0,0,.267.519,1.049,1.049,0,0,0,.676.2l.251-.063h.11l.126-.016.22-.079.095-.079.11-.031h.189l.55-.362.2-.095.786-.8.031-.094.095-.079.094-.11.22-.456.095-.33v-.125a.947.947,0,0,0-.267-.645,1.269,1.269,0,0,0-.754-.283l-.126.015-.031-.015h-.126l-.173.031-.424.189.3-.424-.079-.079-.2-.031-.377.079Zm1.085,1.194.188.314v.11l-.031.031-.189.534.016.094-.126.016-.125.189-.456.377-.66.315-.157-.016-.095-.031-.094-.094v-.047l-.047-.079-.016-.142.016-.079v-.031l.079-.346v-.11l.141-.2.031-.188v-.016h.079l.157.031.582-.518.063-.126.346-.063.3.079Zm-18.073-3.567v.11l-.062.283-.236.676v.063l-.11.157-.031.142-.095.063-.094.189v.047l-.016.125-.11.063-.534.833v.016l-.031.063-.095.031-.251.3.078-.487.2-.44v-.063l.031-.063.063-.079.565-1.1v-.016l.047-.11.173-.157.078-.141.015-.079.078-.047.252-.346.078-.032Z" transform="translate(-247.395 -98.067)" fill="#006cb7"/>
    <path id="Path_57" data-name="Path 57" d="M1025.692,542.145l-.062-.157-.2-.047-.157.016-.11.063-.157.031-.236.189-.016.094-.126-.015-.487.44a.42.42,0,0,0-.11.362l.015.094.047.079.031.142.079.047.094.032.125-.032.079.032h.047l.44-.142.031-.063.079-.016.126-.079.157-.141.095-.2v-.079l.047-.031.11-.251.063-.346v-.016Z" transform="translate(-283.16 -101.425)" fill="#006cb7"/>
    <path id="Path_58" data-name="Path 58" d="M952.813,542.4a1.264,1.264,0,0,0-.739-.283l-.157.015-.047-.015h-.063l-.377.079-.267.141.314-.424-.079-.079-.22-.031-.377.079-.472.314-.031.11-.11.047-.534.393-.236.283-.566.471-.063.11-.047.031-.456.424c-.031-.016-.126.047-.267.173l-.11.126v-.016l-.063-.346a.83.83,0,0,0-.157-.314l-1.807-1.98-.142-.062-.078-.111v-.078l-.047-.142-.126-.22-.031-.189.157-.5.5-.519.031-.063.094-.016.377-.3.3-.157c0,.157-.157.33-.456.534l-.141.078-.063.078-.016.11.016.063.141.063.079.016h.094a7.193,7.193,0,0,0,.911-.424l.9-.628.047-.047.11-.079.079-.189v-.173l.015-.063v-.173l.016.016v-.016l-.094-.236a.245.245,0,0,0-.22-.094h-.078l-1.682.5-.063.079-.251.11-.707.424-.032.047-.173.063-.5.409-.408.471-.047.126-.126.141-.173.409v.126l-.047.094v.063l.063.361.173.424.063.031.016.047v.031l.126.141.079.031.157.268.518.471.063.015.188.189.094.047.031.079.283.252c.6.55.9.927.912,1.147v.157l-.362.188-.031.031v.126c0,.11-.11.236-.314.393a1.149,1.149,0,0,1-.456.22l-.079-.016-.015-.031.031-.063.11-.078.141-.031.094-.094.079-.015.141-.063.031-.078-.047-.094-.157-.063h-.047l-.047.032-1.288.518-.063.063-.6.251c-.157.079-.236.142-.236.189v.047l-.031.157.016.063v.047l.079.125.377.157.314.063h.094l.22-.047.236-.016.047-.047.11-.016.047-.047.534-.251h.016l.754-.409.094-.11.094-.016.9-.755.534-.235.063-.141v-.063l-.016-.047.566-.44.032-.11.125-.047.11-.11.11-.063-.173.66.031.22-.016.094v.047a.656.656,0,0,0,.267.519,1.024,1.024,0,0,0,.676.2l.157-.031.079-.031.267-.016.2-.079.095-.079.094-.031h.22l.519-.362.251-.094.079-.141.488-.44.172-.22.032-.094.142-.079.078-.11.252-.519.062-.267v-.125a.9.9,0,0,0-.282-.645Zm-1.635.786.079-.125L951.6,543l.267.079.236.315-.015.11v.031l-.236.534v.094l-.063.016-.157.189-.487.377-.189.11-.456.2-.126-.016-.11-.031-.11-.094v-.047l-.031-.078-.016-.142v-.079l.016-.031.094-.346v-.11l.157-.267v-.125l.031-.016h.063l.141.031.566-.518Z" transform="translate(-228.07 -98.855)" fill="#006cb7"/>
    <path id="Path_59" data-name="Path 59" d="M898.707,537.059l-.173-.016c-.173,0-.425.2-.754.6a6.375,6.375,0,0,0-1.006,1.477v.063l-.032.095-.11.094-.188.362v.047l-.016.079-.031.048-.487,1.241-.236,1.132.032.157-.063.125.031.11-.031.047-.126.047-.063.095-.33.235-.031.032-.141.063-.063.11-.173.094-.032.031-.11.032-.3-.079-.188-.267-.032-.173-.047-.063.031-.126.015-.267-.015-.063.063-.094v-.031l-.094-.22a.2.2,0,0,0-.157-.062l-.346.031-1.461,1.053-.031.079-.079.016-.094.141h-.125l-.063.032-.188.173-.141.032-.141.094-.063.016h-.11l.11-.22.079-.079.031-.094.88-.8.141-.063.314-.267.032-.094.11-.047.267-.2.063-.126.141-.063.518-.44.5-.33.157-.236-.016-.032-.031-.016.016-.031V540.5l-.094-.078-.22-.063h-.141l-.377.11-.817.456-.063.11-.251.094-.11.126-.079.031-.11.094-.817.5v.079l-.094.047-.754.644-.094.094-.078.015-.786.582-.048.016-.031.047-.22.141h-.032l-.031.079-.566.409-.015.032v.047l.015.047h-.11l-.315.173-.079-.047-.047-.063.079-.613v-.063l.016-.063v-.047l.629-2.436.047-.062.031-.079-.031-.079.2-.44.346.016a.506.506,0,0,0,.283-.079.294.294,0,0,0,.047-.2l-.032-.55-.016-.031-.189-.047h-.11l.236-.723-.016-.11-.142-.173-.11-.031-.283.047-.094.126v.016l-.142.094-.079.125-.3.613-.33.047-.063-.031-.2-.047h-.377l-.047.047h-.094l-.267-.047-.2.031-.33.016-.2-.047-.613.047-.047.031-.032.016h-.094l.015.063-.031.519.031.141.157.031.11.063.157.047h.031l.079-.094.031-.047.126.126h.723l.047-.031h.11l.031.031.063-.063.315.063.141-.031.173-.063.173.016-.079.173-.11.094-.267.471c-.079.173-.157.267-.2.267h-.031l-.3.456.032.016v.047l-.047.047-.079.016-.44.566-.739.66h-.016l-.031.047-.487.408-.346.409-.031.016-.047.094v.032l.016.094.142.031h.047l.079-.031.927-.519.063-.063.047-.079.628-.471.189-.22.126-.094.141-.22.126-.079.031-.032-.22.691-.016.016h.016l-.157.518v.047l.047.094-.047.063-.047.2-.031.393.031.079v.2l.079.471a.586.586,0,0,0,.346.188l.094.063.094-.031.047.031h.079l.126-.015.094-.047h.047l.456-.267.362-.33.047-.094.063-.031.267-.173.267-.315.047-.047.047-.016.157-.079.2-.188.047.031.11-.126.188-.157-.267.534-.032.22a.35.35,0,0,0,.173.267.493.493,0,0,0,.345.157l.267-.031.283-.142a3.013,3.013,0,0,0,.849-.471c.267-.173.393-.314.393-.424v-.016l.031.016h.063l.047-.016.063-.079.189-.141.2-.094.126-.126.189-.11v.11l-.016.126a.916.916,0,0,0,.3.707,1.018,1.018,0,0,0,.754.252l.126.031h.016l.33-.11.314-.236.047-.048.126-.063.141-.125.173-.094.2-.189h.094l.032-.11.031-.031.016.267.094.283.079.063.031.094v.063a1.444,1.444,0,0,0,.424.534,1.006,1.006,0,0,0,.55.188l.094-.016h.094l.047.047.141.047.487-.094a1.553,1.553,0,0,0,.487-.236l.094-.063.126-.031.251-.141.047-.078.11-.031.346-.346.079-.11.314-.251.141-.047.047-.126.362-.362.079-.173v-.063l-.047-.047-.141-.016-.11.016-.142.11-.157.047-.078.095-.141.063-.708.566-.157.094a.582.582,0,0,0-.22.11l-.063.094-.063.016h-.031l-.016-.016-.33.126-.252.031a.878.878,0,0,1-.707-.361,1.5,1.5,0,0,1-.3-.943l.55-.6a4.126,4.126,0,0,0,.471-.707l.063-.157.141-.11.251-.362.079-.188v-.032l.031-.063.283-.393v-.062l.173-.441.031-.173.094-.062.377-1.163v-.078l-.016-.063.047-.157.016-.3a.941.941,0,0,0-.079-.408.546.546,0,0,0-.346-.157l-.032-.016Zm-.456,1.744.016.031-.047.283-.267.676.032.063-.126.157-.031.142-.063.063-.11.189v.047l-.063.125-.063.063-.55.833v.016l-.031.063-.078.031-.252.3.063-.487.2-.44v-.032l-.016-.031.031-.063.078-.079.581-1.1v-.016l.016-.11.2-.157.063-.141.016-.079.063-.047.283-.346.047-.032v.079Z" transform="translate(-187.636 -98.067)" fill="#006cb7"/>
    <path id="Path_60" data-name="Path 60" d="M870.726,550.238l-.283.188-.471.487-.582.472-.047.11-.079.031-.409.424-.094.047-.189.126-.5.472v.11l-.126.079-.047.11.047.094.063.031h.016l.519-.267.754-.519.031-.11.11-.047.2-.173v.016l-.173.644.079.22-.031.094v.047a.654.654,0,0,0,.267.518,1,1,0,0,0,.66.2l.267-.063h.094l.141-.016.2-.079.094-.079.079-.031h.251l.535-.362.2-.095.11-.141.456-.44.189-.22v.016l.078-.126.079-.063.047-.063h-.063l.314-.5.079-.33v-.063l.063-.063a1.162,1.162,0,0,0-.3-.645,1.458,1.458,0,0,0-.754-.283l-.142.015-.047-.015h-.079l-.377.079-.252.141.33-.424-.11-.079-.22-.031-.393.079-.472.314-.031.11-.094.048Zm1.917,1.037-.016.11-.362.739.157-.252-.032.079.016.094-.142.079-.11.126-.456.377-.66.314-.236-.047-.078-.094v-.047l-.079-.22v-.079l.047-.031.032-.141V552.2l.031-.126v-.11l.063-.094h-.031l.11-.11v-.031l.5-.378h.016l.3-.283.094-.125.314-.063.3.079.22.314Z" transform="translate(-176.123 -106.736)" fill="#006cb7"/>
    <path id="Path_61" data-name="Path 61" d="M1259.665,537.059l-.157-.016c-.157,0-.424.2-.785.6a8.873,8.873,0,0,0-.88,1.3h1.21l.141-.189.047-.032v.11l-.016.11h.66l.078-.22.11-.487-.031-.141.063-.157.015-.3-.078-.408a.488.488,0,0,0-.361-.157l-.016-.016Z" transform="translate(-443.462 -98.067)" fill="#006cb7"/>
    <path id="Path_62" data-name="Path 62" d="M1257.133,543.091h-1.21a.632.632,0,0,0-.11.173v.063l-.047.095-.079.094-.2.362v.047l-.015.079-.047.047a7.452,7.452,0,0,0-.377.974h.911v-.047l.063-.079.6-1.1v-.016l.031-.11.079-.047.094-.11.11-.22.063-.047.141-.157Z" transform="translate(-441.542 -102.214)" fill="#006cb7"/>
    <path id="Path_63" data-name="Path 63" d="M1261.014,543.091h-.66l-.032.173-.251.676.015.063-.156.157-.032.142-.156.251v.047l-.032.125-.063.063-.157.236h.613l.094-.252v-.031l.032-.063.094-.063.2-.33v-.063l.2-.44.016-.173.063-.063.2-.456Z" transform="translate(-444.591 -102.214)" fill="#006cb7"/>
    <path id="Path_64" data-name="Path 64" d="M1254.789,549.238h-.911a2.228,2.228,0,0,0-.078.267,5.993,5.993,0,0,0-.252,1.132l.047.157-.079.125.031.063v.047l-.031.047-.126.047-.047.047h1.131a.1.1,0,0,1-.016-.063l.173-.157.126-.173.062-.063.676-.912.032-.157.141-.11.094-.126.063-.047.063-.126h-.613l-.424.6v.079l-.094.031-.267.3.078-.487.22-.44-.016-.031v-.031l.016-.016Z" transform="translate(-440.378 -106.428)" fill="#006cb7"/>
    <path id="Path_65" data-name="Path 65" d="M1236.106,550.016l-.094.079h-.063l-.487.5v.094l-.22.142-.173.235.063.047-.173.11-.33.3-.079.126h1.65l.125-.55.111-.33.015-.094.141-.157.157-.3.016-.016v-.031l-.078-.173-.173-.063-.408.079Z" transform="translate(-427.494 -106.907)" fill="#006cb7"/>
    <path id="Path_66" data-name="Path 66" d="M1245.389,553.137l-.408.063-.095.063-.031.094-.126.094-.283.393h1.226a1.394,1.394,0,0,1-.032-.283c-.015-.251-.079-.377-.2-.377h-.031l-.016-.047Z" transform="translate(-434.278 -109.101)" fill="#006cb7"/>
    <path id="Path_67" data-name="Path 67" d="M1268.053,552.647l-.266-.11h-.456l-.141.094-.063.094-.172.094-.488.534-.015.047-.063.031h1.9l-.047-.2v-.063q-.071-.448-.189-.519Z" transform="translate(-449.32 -108.69)" fill="#006cb7"/>
    <path id="Path_68" data-name="Path 68" d="M1300.225,549.1h.613l-.157-.047-.157-.016-.252.032c-.016.016-.031.016-.047.031Z" transform="translate(-472.518 -106.291)" fill="#006cb7"/>
    <path id="Path_69" data-name="Path 69" d="M1295.9,549.238h-.613a1.582,1.582,0,0,0-.283.236l-.55.5-.094.016-.581.55-.063.094-.126.047-.283.267-.078.11-.157.079-.047.031h.943l.346-.283.157-.079.11-.094.173-.032.125.094-.047.393h1.131l.079-.283.047-.33.11-.252-.062-.11.094-.251.015-.2v-.032l.016-.079v-.11l-.063-.094-.141-.142-.063-.031-.094-.016Z" transform="translate(-467.584 -106.428)" fill="#006cb7"/>
    <path id="Path_70" data-name="Path 70" d="M1282.376,549.535l-.094.016h-.016a.784.784,0,0,0-.487.126l-.519.22-.126.142-.11.031-.974.566-.062.11-.55.3-.063.11-.315.126-.078.063h1.729l.723-.456.173-.173h.141l.126-.126.173-.047.329-.251.221-.283-.031-.2.016-.063v-.079l-.063-.11-.094-.063-.047.047Z" transform="translate(-457.955 -106.599)" fill="#006cb7"/>
    <path id="Path_71" data-name="Path 71" d="M1307.449,555.052l-.126-.016h-.016l-.235.11h.408l.015-.047-.047-.047Z" transform="translate(-477.213 -110.403)" fill="#006cb7"/>
    <path id="Path_72" data-name="Path 72" d="M1196.336,536.894l-.126.078-.346.362-.126.22-.047.157-.126.094-.095.173-.032.031-.078.094c-.047.032-.047.094-.031.173v.047l-.126.063-.188.456h1.257l.016-.079-.032-.047.079-.047.11-.22.047-.22v-.094l.125-.157.064-.252-.016-.11.095-.44v-.047l-.032-.047.032-.047-.048-.094-.251-.047-.047.047-.078-.047Z" transform="translate(-400.389 -97.965)" fill="#006cb7"/>
    <path id="Path_73" data-name="Path 73" d="M1193.224,543.091h-1.257l-.377.911-.094.063-.157.534h-.142l-.172.078-.456.346h1.744l.173-.346-.016-.078-.015-.031.094-.047.2-.346v-.047l-.016-.016.016-.047.063-.063.2-.3.063-.267v-.079l.016-.11.094-.079.031-.079Z" transform="translate(-397.34 -102.214)" fill="#006cb7"/>
    <path id="Path_74" data-name="Path 74" d="M1173.1,552.018l-.031.078-.44.377h1.776l.189-.534.031-.063.173-.581-.125-.11-.3-.047a.918.918,0,0,0-.488.2l-.11.079-.031.094-.644.5Z" transform="translate(-385.038 -107.731)" fill="#006cb7"/>
    <path id="Path_75" data-name="Path 75" d="M1164.768,552.743l-.409.409-.031.11h1.414l.079-.314.031-.063v-.11l.032-.079v-.062l-.094-.236-.3-.11a1.28,1.28,0,0,0-.722.456Z" transform="translate(-379.35 -108.518)" fill="#006cb7"/>
    <path id="Path_76" data-name="Path 76" d="M1185.1,550.04l.361-.393.048-.11h.126l-.078.582-.613.8-.063.142-.094.016-.079.094h.723l.079-.094.078.094h1.053v-.047l-.094-.817-.031-.126.031-.141.015-.283.047-.189.188-.33h-1.744l-1.367.99-.063.079-.5.409v.031l-.063.094-.2.063-.33.267h1.524l.173-.252.676-.723.016-.094.189-.063Z" transform="translate(-391.823 -106.428)" fill="#006cb7"/>
    <path id="Path_77" data-name="Path 77" d="M1227.345,547.589h-.157l-.377.11-.707.409h1.414l.031-.031.126-.236-.015-.032-.032-.016.032-.063-.095-.079-.22-.063Z" transform="translate(-421.702 -105.297)" fill="#006cb7"/>
    <path id="Path_78" data-name="Path 78" d="M1220.45,549.238l-.094.047-.063.11-.063.016-.157.079-.141.125-.094.032-.094.094-.786.5v.078l-.157.047-.739.644-.062.094-.079.016-.062.047h1.619l.3-.33.141-.063.314-.267.047-.094.11-.047.251-.2.11-.126,1.116-.8Z" transform="translate(-416.049 -106.428)" fill="#006cb7"/>
    <path id="Path_79" data-name="Path 79" d="M1203.962,550.039l-.126-.032-.11-.062-.047-.063-.189-.047h-.063l-.016-.047h-.329l-.77.33-.188.3.016.031.078.11v.094l-.032.016-.125.142L1202,551l-.078.016-.44.44-.016.094h.817l.11-.11.094-.079.094-.126.314-.141.079-.141.141.016.2.157.251.047.016.094.2.2.015.078h1.116l.079-.251-.11-.361-.063-.094.016-.079-.031-.063-.456-.408-.393-.252Z" transform="translate(-404.809 -106.805)" fill="#006cb7"/>
    <path id="Path_80" data-name="Path 80" d="M1226.7,553.12l-.079-.22-.173-.063-.361.031-1.037.77h1.587l.016-.063.015-.267-.015-.063.047-.094v-.031Z" transform="translate(-420.983 -108.895)" fill="#006cb7"/>
    <path id="Path_81" data-name="Path 81" d="M1214.5,555.449l.015-.063h-1.587l-.393.283-.031.079-.047.016-.157.141h-.094l-.048.031-.22.173-.126.031-.173.094-.046.016h-.079l.063-.22.079-.079.063-.094.44-.346.126-.125h-1.619l-.472.314-.031.063h-.016l-.2.141-.078.031-.047.063-.079.031-.126.094h-.031v.032l-.047.031-.063.141-.095.016-.487.283-.062.016-.173.094h-.094l.408-1.351h-1.116l.032.22-.032.5-.015.063-.22.613v.063l-.11.11-.015.094-.126.267v.016h1.493l.55-.33.047-.078.157-.031.094-.094.126-.157.125-.047.095-.094.015-.032.142-.031.016-.031.031.031.33-.283-.267.534-.063.22.2.267a.512.512,0,0,0,.283.157h.142l.188-.031.252-.142a3.95,3.95,0,0,0,.9-.471c.236-.157.346-.3.346-.424v-.016l.048.016h.063l.047-.016.236-.22.236-.094.22-.189.094-.047v.236a.959.959,0,0,0,.283.707,1.122,1.122,0,0,0,.755.252l.063.016h.078l.031-.016h.047l.236-.079.33-.283.157-.063.094-.079.063-.016.015-.031.173-.094.11-.189.047.047.063-.047h.047v-.031l.031-.063.047-.031.141.031v.267l.047.267a1.577,1.577,0,0,0,.189.723.648.648,0,0,0,.094.11h1.194l.111-.063.361-.409.11-.032.157-.2.11-.094.031-.047.331-.251.063-.11.063-.015.031.015.031.032a.775.775,0,0,0,.315.581,1.147,1.147,0,0,0,.707.22l.236-.032h.047l.141-.063.095-.063.078-.016.031-.078.141-.079.095-.016.094-.079h.031l.126-.063.157-.125.079-.032.047-.078h.047l.125-.095a.338.338,0,0,1,.157-.125l.016-.063.031-.078h.016l.016.314.078.283.11.063.016.094v.031l-.016.032a1.165,1.165,0,0,0,.44.534,1.146,1.146,0,0,0,.188.11h1.351l.378-.173.063-.063.125-.031.236-.142.046-.078.142-.031.188-.157.047-.079.2-.22.314-.251.11-.048.016-.047.047-.048.047-.063h.126l.11-.079.236.2.141.22.079.063v.094l.157.267.063.032.016.031v.079l.126.079.031.079.236.173.267.031.424-.016.236-.11.943-.692.126-.031.189-.157a1.8,1.8,0,0,0,.157.927.646.646,0,0,0,.172.236h2.515l.125-.063.095-.126.157-.016.015-.047h.031l.283-.141.141-.11.078-.141.236-.11.078-.11h.031v-.031l.032-.031h.078l.032-.016.424-.33.016-.063.141-.047.692-.566h-.943l-.44.314-.236.236h-.016l-.33.22-.11.157-.157.047-.3.22-.346.126-.094.11h-.2l-.11.11-.315.016-.471-.094a.415.415,0,0,1-.221-.314l-.047-.063.031-.11-.047-.2a.664.664,0,0,1,.172-.377.851.851,0,0,1,.393-.283l.126-.094.031-.016h-1.729l-.141.11-.141.079v.031h-.079l-.126.047-.048.047-.094.047-.047.11-.267.173-.047.094-.141.016-.173.095-.157.031-.314-.094a.917.917,0,0,1-.173-.393l-.063-.079-.047-.314h-1.9l-.032.016-.456.456c-.046-.016-.125.047-.267.173l-.22.236h-.047l-.22.11-.048.094-.047.016h-.062l-.031-.016-.329.126-.2.031a.864.864,0,0,1-.723-.361,1.545,1.545,0,0,1-.283-.88h-1.131l-.267.22-.047.063-.189.094-.016.031-.094.031-.2.2-.063-.016-.095.016-.047.031h-.031l-.267-.11-.189-.283a1.23,1.23,0,0,1-.063-.283h-1.226l-.142.188-.015.094-.079.031-.361.315-.063.157-.2.079-.141.157-.047.063-.11.032-.126.125-.173.063-.047-.032-.062-.157-.016-.11.016-.063-.047-.126v-.094l.157-.723h-1.65l-.047.063-.079.031-.251.2-.047.11-.063.063-.157.078-.047.047-.173.047-.3-.079-.189-.267-.015-.173-.047-.062Z" transform="translate(-408.852 -110.643)" fill="#006cb7"/>
    <path id="Path_82" data-name="Path 82" d="M1195.159,555.386l-.016.016-.252.251-.157.063-.094.094-.142.094-.33.094-.189-.016h-.031l-.315-.126-.047-.11-.094-.079-.11-.173-.063-.031-.015-.063h.015v-.016h-1.052v.016l.015.141.048.11.031.142.095.063.031.063-.031.047v.016l.063.141.079.126.031.016.032.094.251.236.362.141.628.063v.031l.063.063h.047l.031-.047.8-.456.063-.016.016-.031.157-.079.095-.11.063-.047.11-.047.063-.11.078-.031.063-.094.424-.44Z" transform="translate(-398.506 -110.643)" fill="#006cb7"/>
    <path id="Path_83" data-name="Path 83" d="M1208.739,561.6l.047-.016h-1.493l-.031.173.079.142.11.063.094-.016.079.032.455-.032.095-.094.047-.016.11.016.188-.157.078-.078.141-.016Z" transform="translate(-408.785 -114.891)" fill="#006cb7"/>
    <path id="Path_84" data-name="Path 84" d="M1218.249,561.583h0Z" transform="translate(-416.22 -114.891)" fill="#006cb7"/>
    <path id="Path_85" data-name="Path 85" d="M1169.02,555.779l.157-.078.063-.095.22-.22h-.723l-.582.629h-.016l-.219.157-.11.157-.126.047-.11.126-.079.031-.11-.031.11-.3.157-.236.11-.094.11-.267.188-.2.016-.016h-1.524l-.142.11-.078.11-.032-.031h-.016l-.126.063-.063.063h-.016l-.032.047-.047.016-.015.016-.22.157-.079.094-.031.079-.377.22-.3.283v.031l-.047.063-.11.031-.11.047.5-1.4h-1.776l-.754.629-.582.377-.062-.016-.048-.11.251-.88h-1.414l-.015.016-.581.346-.031.126h-.047l-.189.063-.063.173-.141.015-.063.11-.283.252v.141l-.173.11h-.016v.063l.031.063.095.047.2-.063.094-.11.141-.047.142-.094.188-.094.157-.11.189-.063a.661.661,0,0,1,.188-.079l.063-.079.047-.031h.063l.047.031.031.534.063.031.016.063-.016.031v.11a.658.658,0,0,0,.063.393h.817l.032-.016.408-.3c0-.047.063-.094.173-.126l.11-.063.487-.393.141-.188.063-.016.015-.079.047-.016.55-.424.031.031-.063.534v.032l-.063.047v.11l-.047.126.016.047v.047l-.016.126-.078.11-.157.393v.016h1.4l.016-.031.141-.079.11-.141.157-.079.015-.062.032-.016a.137.137,0,0,1,.11-.095l.125-.031v-.063l.393-.267.016-.031.031-.031h.047l.2-.142v-.016l.2-.126-.031.189-.189.471-.063.377.063.173h1.131l.472-.33.518-.534.047-.016.047-.11.141-.079.3-.283.078-.2Z" transform="translate(-375.855 -110.643)" fill="#006cb7"/>
    <path id="Path_86" data-name="Path 86" d="M1169.547,561.866l.015.032-.125.33-.912.927-.031.094-.11.079-.157.188h1.226l.031-.031.032-.126.031-.016.015-.063.11-.047.2-.361.173-.2.11-.236.912-.849h-1.4l.016.032-.141.251Z" transform="translate(-382.023 -114.891)" fill="#006cb7"/>
    <path id="Path_87" data-name="Path 87" d="M1165.8,561.583h-.817l.44.079h.063l.314-.079Z" transform="translate(-379.796 -114.891)" fill="#006cb7"/>
    <path id="Path_88" data-name="Path 88" d="M1182.756,561.6l.047-.016h-1.131l.015.032.111.157.125.063.047-.016.472-.016.172-.063.142-.141Z" transform="translate(-391.241 -114.891)" fill="#006cb7"/>
    <path id="Path_89" data-name="Path 89" d="M1166.564,567.778l.079-.047h-1.226l-.409.472-.063.047v.094l-.251.2.031.031v.047l-.125.063-.44.628-.031.189.031.078.11.063.126.016.5-.125.33-.22.252-.251a.241.241,0,0,1,.094-.126l.141-.094.047-.079.441-.44.361-.55Z" transform="translate(-379.214 -119.106)" fill="#006cb7"/>
    <path id="Path_90" data-name="Path 90" d="M1298.637,555.669a.353.353,0,0,0-.2.126l-.675.565-.518.33-.048-.079.094-.126.032-.11.109-.22.251-.77h-1.131l-.078.518v.2l-.142.346h-.047l-.047-.094-.157-.125a.5.5,0,0,0-.283.11l-.267.283.126.267-.031.126a.689.689,0,0,0,.031.314h1.681l.126-.157.314-.141.236-.173.078-.126.157-.031.126-.173.22-.125.346-.346.11-.031.063-.079.314-.314.141-.252h-.408l-.172.079-.158.11-.189.094Z" transform="translate(-469.296 -110.643)" fill="#006cb7"/>
    <path id="Path_91" data-name="Path 91" d="M1281.352,561.85l.644-.267h-2.515a.729.729,0,0,0,.267.142l.078.094.33.11.645.031.188-.016.173-.079.189-.015Z" transform="translate(-458.297 -114.891)" fill="#006cb7"/>
    <path id="Path_92" data-name="Path 92" d="M1297.592,561.6l.015-.016h-1.681a.169.169,0,0,0,.016.079l.125.377.063.11v.031c-.016.047.016.079.062.094l.11.031.126.016.11-.063.315-.079.172-.236h.079l.126-.047.126-.126.157-.047.079-.126Z" transform="translate(-469.571 -114.891)" fill="#006cb7"/>
    <path id="Path_93" data-name="Path 93" d="M1238.094,561.583H1236.9a.9.9,0,0,0,.44.22l.11-.031.157.031.487-.22Z" transform="translate(-429.104 -114.891)" fill="#006cb7"/>
    <path id="Path_94" data-name="Path 94" d="M1258.093,561.583h-1.351a1.078,1.078,0,0,0,.377.079l.063-.016h.094l.032.047.188.047.439-.094.157-.063Z" transform="translate(-442.707 -114.891)" fill="#006cb7"/>
    <path id="Path_95" data-name="Path 95" d="M862.319,539.3h-.063l-.739-.11-3.426.157-.236.393-.11.471-.063.126-.031.031v.157l.063.094.063.047h.047l.047-.047.6-.11h.094l.094-.063,1.241-.172.094.015-.11.629-.015.016-.2,1.147-.031.094v.125l-.016.047-.142,1.257-.016.016-.094,1.257v-.11l-.063.141v2.294h.016v.016h.66l.267-1.76.016-.031.251-1.414v-.031l.613-2.562.031-.927.11-.283,1.021.063.079.015h.031l.094-.031.031-.063.016-.456-.047-.361-.063-.063-.11-.016Zm-2.687.99.079-.015h.079l-.157.015Zm.283.582-.016.016.032-.173-.016.157Zm-.125.911v.047l-.016.047.016-.094Z" transform="translate(-169.099 -99.541)" fill="#006cb7"/>
    <path id="Path_96" data-name="Path 96" d="M1286.8,486.6h.3q.213-.66.33-1.084c.078-.283.189-.581.3-.88a4.328,4.328,0,0,0-1.367-.707,6.1,6.1,0,0,0-1.87-.267,5.06,5.06,0,0,0-1.7.283,4.187,4.187,0,0,0-1.43.817,4.007,4.007,0,0,0-1.336,3.143,3.487,3.487,0,0,0,.44,1.854,4.017,4.017,0,0,0,1.084,1.21,7.137,7.137,0,0,0,1.43.849q.777.354,1.414.707a4.736,4.736,0,0,1,1.1.849,1.763,1.763,0,0,1,.425,1.226,2.006,2.006,0,0,1-.566,1.43,2.369,2.369,0,0,1-1.745.6,3.242,3.242,0,0,1-1.068-.173,2.474,2.474,0,0,1-.817-.471,1.9,1.9,0,0,1-.55-.676,2.686,2.686,0,0,1-.3-.817h-.378c-.063.44-.142.849-.236,1.241q-.142.566-.33,1.273a4.038,4.038,0,0,0,1.273.581,6.39,6.39,0,0,0,1.9.267,6.593,6.593,0,0,0,2.153-.33,5.2,5.2,0,0,0,1.666-.927,4.072,4.072,0,0,0,1.053-1.414,4.276,4.276,0,0,0,.377-1.807,3.484,3.484,0,0,0-.44-1.854,4.162,4.162,0,0,0-1.116-1.226,8.322,8.322,0,0,0-1.446-.849c-.519-.236-.99-.487-1.446-.739a4.132,4.132,0,0,1-1.116-.833,1.649,1.649,0,0,1-.44-1.194,1.7,1.7,0,0,1,.566-1.257,2.1,2.1,0,0,1,1.493-.534,2.356,2.356,0,0,1,2.389,1.713Z" transform="translate(-458.606 -61.472)"/>
    <path id="Path_97" data-name="Path 97" d="M1244.529,486.352a4.162,4.162,0,0,1,1.446-1.1,3.942,3.942,0,0,1,1.586-.361,3.851,3.851,0,0,1,1.855.424,4.984,4.984,0,0,1,1.556,1.336h.283a5.514,5.514,0,0,1,.142-1.006,6.107,6.107,0,0,1,.314-1.006,4.146,4.146,0,0,0-.833-.377c-.314-.11-.645-.22-1.006-.314a8.827,8.827,0,0,0-1.116-.2,9.285,9.285,0,0,0-1.1-.078,10.467,10.467,0,0,0-2.986.424,6.547,6.547,0,0,0-2.5,1.3,6.435,6.435,0,0,0-1.713,2.357,8.325,8.325,0,0,0-.66,3.489,6.828,6.828,0,0,0,.5,2.609,6.035,6.035,0,0,0,1.43,2.106,6.629,6.629,0,0,0,2.294,1.4,8.983,8.983,0,0,0,3.08.5,9.855,9.855,0,0,0,2.247-.236,6.8,6.8,0,0,0,1.807-.645,4.041,4.041,0,0,1,.141-.833q.118-.424.283-.849l-.251-.157a4.125,4.125,0,0,1-.739.613,4.571,4.571,0,0,1-.912.472,9.8,9.8,0,0,1-.958.3,4.212,4.212,0,0,1-.974.11,4.535,4.535,0,0,1-1.7-.33,3.939,3.939,0,0,1-1.508-.99,5.313,5.313,0,0,1-1.085-1.776,7.363,7.363,0,0,1-.408-2.593,8.254,8.254,0,0,1,.408-2.718,5.364,5.364,0,0,1,1.069-1.87Z" transform="translate(-431.092 -61.472)"/>
    <path id="Path_98" data-name="Path 98" d="M1224.146,488.458c.015.472.015.99.015,1.54v2.687c0,.55,0,1.068-.015,1.54-.016.487-.016.943-.031,1.383s-.032.864-.047,1.288c-.016.409-.047.833-.063,1.273.22-.015.456-.047.723-.062s.566-.031.9-.031.629.015.9.031.5.047.723.063c-.031-.44-.063-.864-.079-1.273-.016-.424-.031-.849-.047-1.288s-.015-.9-.015-1.383c-.016-.471-.016-.99-.016-1.54V490c0-.55,0-1.068.016-1.54,0-.487,0-.943.015-1.383s.031-.864.047-1.289c.015-.409.047-.833.079-1.273-.22.016-.455.047-.723.063s-.565.031-.9.031-.628-.016-.9-.031-.5-.047-.723-.063c.016.44.047.864.063,1.273.016.424.031.848.047,1.289s.016.9.031,1.383Z" transform="translate(-420.263 -62.055)"/>
    <path id="Path_99" data-name="Path 99" d="M1197.454,484.514c-.22.016-.456.047-.723.063s-.566.031-.9.031-.629-.016-.9-.031-.5-.047-.723-.063c.031.44.047.864.063,1.273.016.424.047.848.063,1.289s.015.9.015,1.383c.016.472.016.99.016,1.54v2.687c0,.55,0,1.068-.016,1.54,0,.487,0,.943-.015,1.383s-.047.864-.063,1.288c-.016.409-.031.833-.062,1.273.109-.015.236-.015.393-.031.141,0,.361-.016.66-.031s.691-.016,1.194-.016c.487-.015,1.147-.015,1.948-.015.912,0,1.635.015,2.153.031.519.031.959.047,1.3.063-.016-.11-.031-.236-.047-.361a3.828,3.828,0,0,1,0-.974c.016-.125.032-.267.047-.409-.77.095-1.525.157-2.279.2-.739.047-1.493.063-2.247.063-.015-.518-.015-1.132-.031-1.839s-.016-1.43-.016-2.169V490c0-.55,0-1.068.016-1.54.016-.487.016-.943.031-1.383s.032-.864.047-1.289c.016-.409.047-.833.063-1.273Z" transform="translate(-399.842 -62.055)"/>
    <path id="Path_100" data-name="Path 100" d="M1148.486,484.577c-.267-.016-.534-.047-.8-.063.015.33.031.817.047,1.493s.031,1.524.031,2.577c0,.361,0,.707-.016,1.037s-.016.676-.016,1.037v1.147c-.016.424-.016.9-.016,1.414a5.436,5.436,0,0,0,.472,2.389,4.179,4.179,0,0,0,1.272,1.619,5.176,5.176,0,0,0,1.918.911,8.82,8.82,0,0,0,2.357.3,5.78,5.78,0,0,0,4.353-1.524c.99-1.022,1.493-2.671,1.493-4.981,0-.849,0-1.666.016-2.436s.047-1.477.063-2.122.047-1.21.094-1.7c.032-.487.063-.864.094-1.163-.173.016-.346.047-.5.063s-.33.031-.5.031a5.984,5.984,0,0,1-1.006-.094c.047.911.094,1.823.126,2.719.015.9.031,1.807.031,2.718,0,.927-.031,1.823-.078,2.672a8.3,8.3,0,0,1-.424,2.279,3.693,3.693,0,0,1-1.022,1.572,2.681,2.681,0,0,1-1.854.6,6.851,6.851,0,0,1-1.7-.188,2.511,2.511,0,0,1-1.241-.8,4.026,4.026,0,0,1-.77-1.713,13.314,13.314,0,0,1-.252-2.923v-1.681c.016-.55.031-1.116.047-1.682.016-.55.048-1.131.079-1.713.031-.6.078-1.21.141-1.854-.267.016-.534.047-.8.063-.283.016-.549.031-.817.031s-.534-.016-.818-.031Z" transform="translate(-367.94 -62.055)"/>
    <path id="Path_101" data-name="Path 101" d="M1079.22,489.95a3.524,3.524,0,0,0,.786-2.357,3.14,3.14,0,0,0-.345-1.54,3.416,3.416,0,0,0-.943-1.069,2.658,2.658,0,0,0-.535-.314,3.147,3.147,0,0,0-.676-.2c-.267-.047-.566-.094-.911-.126-.362-.016-.8-.031-1.288-.031-.676,0-1.258.016-1.714.047s-.849.047-1.21.047c-.33,0-.629-.016-.9-.031s-.5-.047-.723-.063c.031.44.047.864.063,1.273.015.424.046.848.062,1.288s.016.9.016,1.383c.016.472.016.99.016,1.54v2.687c0,.55,0,1.068-.016,1.54,0,.487,0,.943-.016,1.383s-.047.864-.062,1.289c-.016.409-.032.833-.063,1.273.22-.015.456-.047.723-.063s.566-.031.9-.031.628.015.9.031.5.047.723.063c-.016-.44-.047-.864-.063-1.273-.015-.424-.031-.849-.047-1.289s-.016-.9-.032-1.367c-.015-.487-.015-1.005-.015-1.555v-.8h.172l3.568,6.286c.3-.015.6-.047.9-.063s.6-.031.9-.031.6.015.9.031q.307.024.66.047l-.016.015h.251l-.016-.015c.094-.016.188-.031.267-.047.173-.016.33-.031.487-.031a4.081,4.081,0,0,1,.455.031c.157.016.314.047.472.063.189-.691.393-1.367.613-2.043.235-.676.471-1.336.739-2.011.33-.016.676-.016,1.021-.031s.692-.016,1.037-.016c.425,0,.833,0,1.257.016s.848.016,1.273.031q.377,1.014.707,2.027t.66,2.027c.267-.015.55-.047.833-.063s.565-.031.848-.031c.267,0,.55.015.833.031s.582.047.911.063q-.589-1.2-1.273-2.875c-.456-1.1-.927-2.279-1.414-3.52s-.975-2.483-1.462-3.756-.927-2.467-1.352-3.6c-.141.016-.267.047-.377.063a3.032,3.032,0,0,1-.377.031,2.606,2.606,0,0,1-.377-.031c-.126-.016-.251-.047-.377-.063-.283.754-.6,1.571-.943,2.436s-.707,1.744-1.068,2.64-.723,1.792-1.084,2.672-.707,1.7-1.037,2.467-.613,1.446-.88,2.059c-.2.487-.378.911-.519,1.241-.675-1.053-1.367-2.09-2.043-3.127-.723-1.116-1.4-2.247-2.043-3.363a4.324,4.324,0,0,0,2.278-1.289Zm8.235.424c.283.77.566,1.556.865,2.357h-3.63q.448-1.2.9-2.357c.3-.785.629-1.571.975-2.341.314.77.613,1.556.9,2.341Zm-13.546-4.934a11.661,11.661,0,0,1,1.4.078,2.113,2.113,0,0,1,.959.346,1.653,1.653,0,0,1,.55.786,4.579,4.579,0,0,1,.173,1.383,2.816,2.816,0,0,1-.707,2.106,2.613,2.613,0,0,1-2,.723.962.962,0,0,1-.2-.016,1.216,1.216,0,0,1-.236-.031c0-1.776.015-3.567.063-5.374Z" transform="translate(-315.206 -61.849)"/>
    <path id="Path_102" data-name="Path 102" d="M1023.926,488.458c.016.472.016.99.016,1.54v2.687c0,.55,0,1.068-.016,1.54,0,.487,0,.943-.016,1.383s-.047.864-.063,1.288c-.016.409-.031.833-.063,1.273.22-.015.456-.047.723-.062s.566-.031.9-.031c.518,0,1.115.015,1.823.047s1.54.047,2.53.047a7.112,7.112,0,0,0,2.64-.5,6.329,6.329,0,0,0,2.184-1.477,6.752,6.752,0,0,0,1.493-2.279,7.722,7.722,0,0,0,.55-2.954,7.611,7.611,0,0,0-.566-3.127,4.671,4.671,0,0,0-1.556-1.98,6.475,6.475,0,0,0-2.42-1.021,14.637,14.637,0,0,0-3.1-.314q-1.3,0-2.122.047-.8.047-1.461.047c-.33,0-.629-.016-.9-.031s-.5-.047-.723-.063c.032.44.047.864.063,1.273.016.424.047.848.063,1.289s.016.9.016,1.383Zm8.313-1.4a4.912,4.912,0,0,1,.911,1.65,6.942,6.942,0,0,1,.33,2.2,9.805,9.805,0,0,1-.33,2.687,5.6,5.6,0,0,1-.974,1.933,3.933,3.933,0,0,1-1.54,1.131,5.152,5.152,0,0,1-2.012.377c-.393,0-.738,0-1.021-.016q-.4-.024-.707-.047c0-.079,0-.283-.016-.6-.016-.33-.016-.676-.016-1.068v-7.9c0-.393,0-.739.016-1.053s.016-.519.016-.613c.3-.016.6-.047.9-.063s.676-.031,1.163-.031a4.7,4.7,0,0,1,1.854.361,4.131,4.131,0,0,1,1.43,1.053Z" transform="translate(-282.997 -62.055)"/>
    <path id="Path_103" data-name="Path 103" d="M984.581,484.577c-.3-.016-.581-.047-.88-.063q.141.283.424.8c.173.346.393.739.628,1.194.236.424.5.912.77,1.43.283.518.566,1.053.833,1.587.283.518.566,1.037.833,1.556s.5.99.738,1.43c.016.3.016.613.032.927v.912c0,.613-.032,1.257-.095,1.9s-.11,1.289-.141,1.917c.282-.015.566-.047.849-.062s.565-.031.833-.031c.283,0,.566.015.849.031s.566.047.833.063c-.078-.754-.141-1.461-.157-2.137s-.031-1.336-.031-2c0-.33,0-.66.016-.974.015-.33.015-.66.015-.974.314-.613.676-1.289,1.069-2.027s.77-1.446,1.147-2.153q.589-1.038,1.085-1.933.495-.919.849-1.461c-.173.016-.346.047-.487.063-.157.016-.314.031-.472.031a4.155,4.155,0,0,1-.456-.031c-.157-.016-.3-.047-.44-.063-.236.487-.471,1.006-.707,1.54s-.487,1.069-.739,1.587c-.251.534-.5,1.037-.77,1.524a11.552,11.552,0,0,1-.786,1.288h-.047a11.732,11.732,0,0,1-.566-1.037c-.236-.456-.5-.974-.77-1.54q-.425-.848-.849-1.744c-.283-.581-.535-1.131-.754-1.619-.3.016-.6.047-.881.063s-.581.031-.88.031-.6-.016-.9-.031Z" transform="translate(-255.516 -62.055)"/>
    <path id="Path_104" data-name="Path 104" d="M942.832,484.577c-.267.016-.566.031-.9.031s-.629-.016-.9-.031-.5-.047-.723-.063c.031.44.047.864.063,1.273.016.424.047.848.063,1.289s.016.9.016,1.383c.016.472.016.99.016,1.54v2.687c0,.55,0,1.068-.016,1.54,0,.487,0,.943-.016,1.383s-.047.864-.063,1.288c-.016.409-.031.833-.063,1.273.22-.015.456-.047.723-.062s.566-.031.9-.031.628.015.9.031.5.047.723.063c-.016-.44-.047-.864-.063-1.273-.016-.424-.031-.849-.047-1.288s-.016-.9-.031-1.383c-.016-.471-.016-.99-.016-1.54v-1.132l1.509-.047c.5-.016,1.005-.031,1.508-.031s1.006.016,1.509.031l1.509.047v1.132c0,.55,0,1.068-.016,1.54-.015.487-.015.943-.031,1.383s-.031.864-.047,1.288c-.016.409-.047.833-.063,1.273.22-.015.456-.047.722-.062s.566-.031.9-.031.628.015.9.031.5.047.723.063c-.032-.44-.047-.864-.063-1.273-.015-.424-.031-.849-.047-1.288s-.032-.9-.032-1.383c-.015-.471-.015-.99-.015-1.54V490c0-.55,0-1.068.015-1.54,0-.487.016-.943.032-1.383s.032-.864.047-1.289c.016-.409.031-.833.063-1.273-.22.016-.456.047-.723.063s-.566.031-.9.031-.629-.016-.9-.031-.5-.047-.722-.063c.047.864.094,1.713.11,2.546.031.833.047,1.807.047,2.891-.393.016-.8.016-1.257.031s-1.022.016-1.729.016c-.723,0-1.32,0-1.807-.016s-.9-.016-1.242-.031c0-1.084.016-2.059.031-2.891s.063-1.682.126-2.546c-.22.016-.456.047-.723.063Z" transform="translate(-225.774 -62.055)"/>
    <path id="Path_105" data-name="Path 105" d="M898.51,485.787c.016-.409.047-.833.063-1.273-.22.016-.456.047-.723.063s-.566.031-.9.031-.628-.016-.9-.031-.5-.047-.723-.063c.031.44.047.864.063,1.273.016.424.047.848.063,1.289s.016.9.016,1.383c.016.472.016.99.016,1.54v2.687c0,.55,0,1.068-.016,1.54,0,.487,0,.943-.016,1.383s-.047.864-.063,1.288c-.016.409-.031.833-.063,1.273.11-.015.236-.015.393-.031.142,0,.362-.016.66-.031s.691-.016,1.194-.016c.487-.015,1.147-.015,1.949-.015.911,0,1.634.015,2.153.031.518.031.959.047,1.3.063-.016-.11-.031-.236-.047-.361a3.821,3.821,0,0,1,0-.974c.016-.125.031-.267.047-.409-.77.095-1.524.157-2.279.2-.738.047-1.493.063-2.247.063-.016-.518-.016-1.132-.031-1.839s-.016-1.43-.016-2.169V490c0-.55,0-1.068.016-1.54.016-.487.016-.943.031-1.383s.031-.864.047-1.289Z" transform="translate(-194.935 -62.055)"/>
    <path id="Path_106" data-name="Path 106" d="M855.853,486.65c-.346.864-.707,1.744-1.069,2.64s-.723,1.792-1.084,2.672-.707,1.7-1.037,2.467-.613,1.446-.88,2.059-.471,1.116-.628,1.477c.173-.015.346-.047.5-.063.173-.016.33-.031.487-.031a4.089,4.089,0,0,1,.456.031c.157.016.314.047.471.063.189-.691.393-1.367.613-2.043.236-.676.471-1.336.739-2.011.33-.016.676-.016,1.021-.031s.692-.016,1.037-.016c.425,0,.833,0,1.257.016s.848.016,1.273.031q.377,1.014.707,2.027l.66,2.027c.267-.015.55-.047.833-.063s.566-.031.849-.031c.267,0,.55.015.833.031s.581.047.912.063q-.59-1.2-1.273-2.876c-.456-1.1-.927-2.279-1.414-3.52s-.974-2.483-1.461-3.756-.927-2.467-1.351-3.6c-.141.016-.267.047-.377.063a3.05,3.05,0,0,1-.377.031,2.607,2.607,0,0,1-.377-.031c-.126-.016-.251-.047-.377-.063-.283.754-.6,1.571-.943,2.436Zm-.927,6.082q.448-1.2.9-2.357c.3-.785.628-1.571.974-2.341.314.77.613,1.556.9,2.341.283.77.566,1.556.864,2.357Z" transform="translate(-164.645 -61.849)"/>
    <path id="Path_107" data-name="Path 107" d="M820.859,484.577c-.393,0-.754-.016-1.116-.031s-.77-.016-1.226-.031a4.25,4.25,0,0,1,.078.44,3.825,3.825,0,0,1,.031.424,4.127,4.127,0,0,1-.031.44,4.257,4.257,0,0,1-.078.44c.3-.047.613-.079.959-.11.346-.016.676-.047,1.006-.079s.644-.047.927-.063c.3-.016.535-.016.739-.016a3.588,3.588,0,0,1,.047.691c.016.314.016.66.016,1.053v4.95c0,.55,0,1.068-.016,1.54,0,.487-.016.943-.032,1.383s-.031.864-.047,1.288c-.015.409-.047.833-.063,1.273.22-.015.456-.047.723-.062s.566-.031.9-.031.628.016.9.031.5.047.723.063c-.016-.44-.047-.864-.063-1.273-.015-.424-.031-.849-.047-1.288s-.015-.9-.031-1.383c-.015-.471-.015-.99-.015-1.54v-6a3.609,3.609,0,0,1,.047-.691c.2,0,.44,0,.723.016.3.016.6.031.927.063s.644.063.974.079c.33.031.629.063.9.11a4.267,4.267,0,0,0-.079-.44,4.116,4.116,0,0,1-.016-.44,3.818,3.818,0,0,1,.016-.424,4.284,4.284,0,0,0,.079-.44c-.424.016-.8.016-1.147.031s-.707.031-1.068.031c-.362.016-.77.016-1.226.016-.456.016-.974.016-1.587.016s-1.147,0-1.588-.016c-.456,0-.864,0-1.225-.016Z" transform="translate(-142.269 -62.055)"/>
    <path id="Path_108" data-name="Path 108" d="M775.5,486.164c.031.629.047,1.4.047,2.294,0,.676-.016,1.367-.032,2.074s-.031,1.415-.047,2.106c-.031.691-.063,1.351-.079,1.98-.031.629-.063,1.195-.094,1.682s-.063.912-.094,1.241a4.849,4.849,0,0,1-.063.628,5.02,5.02,0,0,1,.912-.094c.141,0,.3.015.456.031.173.016.33.047.472.063-.016-.188-.016-.408-.032-.644s-.031-.55-.047-.943c-.016-.377-.016-.848-.016-1.4-.016-.55-.016-1.226-.016-2.027v-2.31c0-.786.016-1.556.031-2.294,1.524,1.619,3.017,3.222,4.447,4.808q2.169,2.381,4.2,4.809a3.478,3.478,0,0,1,.786-.094,2.781,2.781,0,0,1,.393.031c.126.016.267.047.408.063v-2.435c0-.754,0-1.477.016-2.169s.016-1.367.031-2.043q.024-.99.047-2.074c.031-.723.063-1.493.094-2.294q.071-1.2.141-2.64a4.3,4.3,0,0,1-1.792,0,5.692,5.692,0,0,1,.063.786c.016.362.031.817.047,1.352.016.518.016,1.1.016,1.728.016.629.016,1.273.016,1.917v3.646c-1.462-1.587-2.907-3.174-4.306-4.73-1.414-1.556-2.844-3.112-4.274-4.7a4.831,4.831,0,0,1-.9.094,4.674,4.674,0,0,1-.88-.094q.023.707.047,1.65Z" transform="translate(-112.527 -62.055)"/>
    <path id="Path_109" data-name="Path 109" d="M737.171,484.277c-.126-.016-.251-.047-.377-.063-.283.754-.6,1.571-.943,2.436s-.707,1.744-1.069,2.64-.723,1.792-1.084,2.672-.707,1.7-1.037,2.467-.613,1.446-.88,2.059-.471,1.116-.628,1.477c.173-.015.345-.047.5-.063.173-.016.33-.031.487-.031a4.084,4.084,0,0,1,.456.031c.157.016.314.047.471.063.189-.691.393-1.367.613-2.043.235-.676.471-1.336.739-2.011.33-.016.676-.016,1.021-.031s.691-.016,1.037-.016c.425,0,.833,0,1.257.016s.849.016,1.273.031q.377,1.014.707,2.027l.66,2.027c.267-.015.55-.047.833-.063s.566-.031.849-.031c.267,0,.55.015.833.031s.581.047.912.063q-.59-1.2-1.273-2.876c-.456-1.1-.927-2.279-1.414-3.52s-.974-2.483-1.462-3.756-.927-2.467-1.351-3.6c-.141.016-.267.047-.377.063a3.043,3.043,0,0,1-.377.031,2.6,2.6,0,0,1-.377-.031Zm.519,6.1c.283.77.566,1.556.864,2.357h-3.63q.448-1.2.9-2.357c.3-.785.628-1.571.974-2.341.314.77.613,1.556.9,2.341Z" transform="translate(-82.374 -61.849)"/>
    <path id="Path_110" data-name="Path 110" d="M693.571,484.514q-1.3,0-2.122.047-.8.047-1.461.047c-.33,0-.628-.016-.9-.031s-.5-.047-.723-.063c.031.44.047.864.063,1.273.016.424.047.848.063,1.289s.016.9.016,1.383c.016.472.016.99.016,1.54v2.687c0,.55,0,1.068-.016,1.54,0,.487,0,.943-.016,1.383s-.047.864-.063,1.288c-.016.409-.031.833-.063,1.273.22-.015.456-.047.723-.062s.565-.031.9-.031c.519,0,1.116.015,1.823.047s1.54.047,2.53.047a7.113,7.113,0,0,0,2.64-.5,6.332,6.332,0,0,0,2.185-1.477,6.757,6.757,0,0,0,1.493-2.279,7.73,7.73,0,0,0,.55-2.954,7.617,7.617,0,0,0-.566-3.127,4.672,4.672,0,0,0-1.555-1.98,6.483,6.483,0,0,0-2.42-1.021,14.636,14.636,0,0,0-3.1-.314Zm-2.106,1.839c.016-.315.016-.519.016-.613.3-.016.6-.047.9-.063s.676-.031,1.163-.031a4.705,4.705,0,0,1,1.854.361,4.127,4.127,0,0,1,1.43,1.053,4.923,4.923,0,0,1,.911,1.65,6.947,6.947,0,0,1,.33,2.2,9.813,9.813,0,0,1-.33,2.687,5.586,5.586,0,0,1-.974,1.933,3.93,3.93,0,0,1-1.54,1.131,5.151,5.151,0,0,1-2.011.377c-.393,0-.739,0-1.022-.016q-.4-.024-.707-.047c0-.079,0-.283-.016-.6-.016-.33-.016-.676-.016-1.068v-7.9c0-.393,0-.739.016-1.053Z" transform="translate(-53.043 -62.055)"/>
  </g>
</svg>
